<svg xmlns="http://www.w3.org/2000/svg">
  <defs>
    <!-- Money Icons -->
    <symbol id="coin-icon" viewBox="0 0 486 486">
      <path d="M243 0C108.8 0 0 108.8 0 243s108.8 243 243 243 243-108.8 243-243S377.2 0 243 0zm69.8 338.8c-10.6 12.9-24.4 21.6-40.5 26-7 1.9-10.2 5.6-9.8 12.9.3 7.2 0 14.3-.1 21.5 0 6.4-3.3 9.8-9.6 10-4.1.1-8.2.2-12.3.2-3.6 0-7.2 0-10.8-.1-6.8-.1-10-4-10-10.6-.1-5.2-.1-10.5-.1-15.7-.1-11.6-.5-12-11.6-13.8-14.2-2.3-28.2-5.5-41.2-11.8-10.2-5-11.3-7.5-8.4-18.3 2.2-8 4.4-16 6.9-23.9 1.8-5.8 3.5-8.4 6.6-8.4 1.8 0 4.1.9 7.2 2.5 14.4 7.5 29.7 11.7 45.8 13.7 2.7.3 5.4.5 8.1.5 7.5 0 14.8-1.4 21.9-4.5 17.9-7.8 20.7-28.5 5.6-40.9-5.1-4.2-11-7.3-17.1-10-15.7-6.9-32-12.1-46.8-21-24-14.4-39.2-34.1-37.4-63.3 2-33 20.7-53.6 51-64.6 12.5-4.5 12.6-4.4 12.6-17.4 0-4.4-.1-8.8.1-13.3.3-9.8 1.9-11.5 11.7-11.8H246c18.6 0 18.6.8 18.7 20.9.1 14.8.1 14.8 14.8 17.1 11.3 1.8 22 5.1 32.4 9.7 5.7 2.5 7.9 6.5 6.1 12.6-2.6 9-5.1 18.1-7.9 27-1.8 5.4-3.5 7.9-6.7 7.9-1.8 0-4-.7-6.8-2.1-14.4-7-29.5-10.4-45.3-10.4-2 0-4.1.1-6.1.2-4.7.3-9.3.9-13.7 2.8-15.6 6.8-18.1 24-4.8 34.6 6.7 5.4 14.4 9.2 22.3 12.5 13.8 5.7 27.6 11.2 40.7 18.4 41.2 23 52.4 75.3 23.1 110.9z"/>
    </symbol>
    <symbol id="bands-icon" viewBox="0 0 512 512">
      <path d="M432 64H16v320h416Zm-32 288H48V96h352Z"/>
      <path d="M464 144v272H96v32h400V144h-32z"/>
      <path d="M224 302.46c39.7 0 72-35.137 72-78.326s-32.3-78.326-72-78.326-72 35.136-72 78.326 32.3 78.326 72 78.326Zm0-124.652c22.056 0 40 20.782 40 46.326s-17.944 46.326-40 46.326-40-20.782-40-46.326 17.944-46.326 40-46.326Z"/>
      <path d="M80 136h32v176H80zm256 0h32v176h-32z"/>
    </symbol>

    <!-- Navbar Icons -->
    <symbol id="icon-earn" viewBox="0 0 512 512">
      <path d="M395.539 189.691c-19.908-25.487-42.46-46.964-65.215-62.107-8.21-5.463-16.34-10.054-24.371-13.786 8.143-7.262 16.09-16.364 23.814-27.301 15.578-22.056 24.664-43.902 25.043-44.822 3.297-7.991-.08-17.175-7.767-21.128s-17.122-1.357-21.704 5.975c-6.962 11.138-16.651 13.933-23.553 14.317-11.944.663-24.079-5.251-32.45-15.824C256.752 9.118 236.848 0 214.73 0s-42.022 9.118-54.607 25.013a16.622 16.622 0 0 0-2.333 16.661c.379.919 9.465 22.765 25.043 44.822 7.72 10.93 15.662 20.028 23.8 27.289-8.097 3.758-16.294 8.385-24.57 13.899-22.822 15.202-45.438 36.763-65.406 62.352-42.166 54.037-67.34 118.482-67.34 172.39 0 44.349 15.787 79.883 46.927 105.616C131.563 497.21 185.412 512 256.298 512c70.631 0 124.317-14.91 159.567-44.315 31.068-25.918 46.82-61.672 46.82-106.267-.001-53.701-25.102-117.898-67.146-171.727zM193.29 39.266c5.918-3.848 13.432-6.01 21.44-6.01 11.719 0 22.386 4.636 28.532 12.4 13.715 17.324 33.636 27.671 54.239 28.441-11.906 15.155-26.394 27.749-41.202 27.749-26.161 0-51.328-39.319-63.009-62.58zm201.271 402.882c-29.111 24.282-75.629 36.596-138.264 36.596-62.951 0-109.675-12.228-138.874-36.341-23.126-19.112-34.852-46.02-34.852-79.978 0-46.744 22.543-103.541 60.303-151.932 36.285-46.503 79.747-75.392 113.423-75.392 33.558 0 76.871 28.762 113.034 75.062 37.631 48.178 60.098 104.722 60.098 151.255 0 34.267-11.732 61.429-34.868 80.73z"/>
      <path d="M264.274 302.615c-17.444-9.221-35.484-18.757-35.484-29.641 0-15.281 12.431-27.713 27.713-27.713 15.281 0 27.713 12.432 27.713 27.713 0 9.183 7.445 16.628 16.628 16.628s16.628-7.445 16.628-16.628c0-27.854-18.782-51.387-44.341-58.645v-7.866c0-9.183-7.445-16.628-16.628-16.628s-16.628 7.445-16.628 16.628v7.866c-25.559 7.258-44.341 30.792-44.341 58.645 0 30.922 29.497 46.514 53.198 59.042 17.445 9.221 35.484 18.756 35.484 29.64 0 15.281-12.432 27.713-27.713 27.713s-27.713-12.432-27.713-27.713c0-9.183-7.445-16.628-16.628-16.628s-16.628 7.445-16.628 16.628c0 27.854 18.782 51.387 44.341 58.645v7.866c0 9.183 7.445 16.628 16.628 16.628s16.628-7.445 16.628-16.628v-7.866c25.559-7.258 44.341-30.792 44.341-58.645 0-30.921-29.497-46.512-53.198-59.041z"/>
    </symbol>
    <symbol id="icon-leaderboard" viewBox="0 0 297 297">
      <path d="M262.655 11.202h-39.041V9.884c0-5.458-4.425-9.884-9.883-9.884H83.269c-5.458 0-9.884 4.426-9.884 9.884v1.318h-39.04c-5.458 0-9.883 4.425-9.883 9.884v54.029c0 37.247 20.16 58.044 56.813 58.772 3.445 8.52 7.957 16.27 13.484 22.951 7.759 9.378 17.148 16.395 27.55 20.764v50.708h-39.04c-5.458 0-9.884 4.425-9.884 9.884v48.923c0 5.458 4.426 9.884 9.884 9.884h130.463c5.458 0 9.883-4.426 9.883-9.884v-48.923c0-5.459-4.425-9.884-9.883-9.884h-39.04v-50.708c10.401-4.369 19.791-11.386 27.55-20.764 5.527-6.681 10.039-14.432 13.484-22.951 36.652-.728 56.812-21.524 56.812-58.772V21.086c0-5.459-4.425-9.884-9.883-9.884zM44.229 75.115V30.969h29.156v60.454c0 7.696.703 15.179 2.045 22.34-21.498-2.246-31.201-14.422-31.201-38.648zm159.619 172.961v29.156H93.152v-29.156h110.696zm-48.923-19.766h-12.85v-45.787c2.123.199 4.262.323 6.425.323s4.302-.124 6.425-.323v45.787zm-6.425-65.232c-32.07 0-55.348-30.135-55.348-71.655V19.768h110.695v71.655c.001 41.52-23.277 71.655-55.347 71.655zm104.271-87.963c0 24.226-9.703 36.401-31.201 38.648 1.342-7.161 2.044-14.644 2.044-22.34V30.969h29.157v44.146z"/>
    </symbol>
    <symbol id="icon-faq" viewBox="0 0 24 24">
      <path d="M12 2c5.523 0 10 4.477 10 10s-4.477 10-10 10a9.96 9.96 0 0 1-4.587-1.112l-3.826 1.067a1.25 1.25 0 0 1-1.54-1.54l1.068-3.823A9.96 9.96 0 0 1 2 12C2 6.477 6.477 2 12 2Zm0 1.5A8.5 8.5 0 0 0 3.5 12c0 1.47.373 2.883 1.073 4.137l.15.27-1.112 3.984 3.987-1.112.27.15A8.5 8.5 0 1 0 12 3.5Zm0 12a1 1 0 1 1 0 2 1 1 0 0 1 0-2Zm0-8.75a2.75 2.75 0 0 1 2.75 2.75c0 1.01-.297 1.574-1.051 2.359l-.169.171c-.622.622-.78.886-.78 1.47a.75.75 0 0 1-1.5 0c0-1.01.297-1.574 1.051-2.359l.169-.171c.622-.622.78-.886.78-1.47a1.25 1.25 0 0 0-2.493-.128l-.007.128a.75.75 0 0 1-1.5 0A2.75 2.75 0 0 1 12 6.75Z"/>
    </symbol>
    <symbol id="device-type-icon" viewBox="0 0 278 278">
      <path d="M266.333 77H237V34.155C237 20.37 225.691 9 211.906 9H24.978C11.192 9 0 20.37 0 34.155v141.556C0 189.496 11.192 201 24.978 201h65.998c-.006 0 .025-.013.025.127V218h-36.31C50.28 218 46 222.006 46 226.417v17.189c0 4.411 4.28 8.394 8.691 8.394H165v5c0 6.627 5.706 12 12.333 12h89c6.627 0 11.667-5.373 11.667-12V89c0-6.627-5.039-12-11.667-12zM30 149V39h177v38h-29.667C170.706 77 165 82.373 165 89v60H30zm116 69v-16.873c0-.14-.086-.127-.091-.127H165v17h-19zm76.074 38.607c-5.32 0-9.634-4.313-9.634-9.634 0-5.32 4.313-9.634 9.634-9.634 5.32 0 9.634 4.313 9.634 9.634 0 5.32-4.314 9.634-9.634 9.634zM260 225h-77V105h77v120z"/>
    </symbol>
    <symbol id="profile-icon" viewBox="0 0 24 24">
      <path fill-rule="evenodd" clip-rule="evenodd" d="M16 9a4 4 0 1 1-8 0 4 4 0 0 1 8 0Zm-2 0a2 2 0 1 1-4 0 2 2 0 0 1 4 0Z"/>
      <path fill-rule="evenodd" clip-rule="evenodd" d="M12 1C5.925 1 1 5.925 1 12s4.925 11 11 11 11-4.925 11-11S18.075 1 12 1ZM3 12c0 2.09.713 4.014 1.908 5.542A8.986 8.986 0 0 1 12.065 14a8.984 8.984 0 0 1 7.092 3.458A9 9 0 1 0 3 12Zm9 9a8.963 8.963 0 0 1-5.672-2.012A6.992 6.992 0 0 1 12.065 16a6.991 6.991 0 0 1 5.689 2.92A8.964 8.964 0 0 1 12 21Z"/>
    </symbol>

    <!-- Feature Icons -->
    <symbol id="dollar-circle-icon" viewBox="0 0 24 24" width="30" height="30" fill="#FFC107">
      <path d="M12 2C6.486 2 2 6.486 2 12s4.486 10 10 10 10-4.486 10-10S17.514 2 12 2zm1 14.915V18h-2v-1.08c-2.339-.367-3-2.002-3-2.92h2c.011.143.159 1 2 1 1.38 0 2-.585 2-1 0-.324 0-1-2-1-3.48 0-4-1.88-4-3 0-1.288 1.029-2.584 3-2.915V6.012h2v1.109c1.734.41 2.4 1.853 2.4 2.879h-1l-1 .018C13.386 9.638 13.185 9 12 9c-1.299 0-2 .516-2 1 0 .374 0 1 2 1 3.48 0 4 1.88 4 3 0 1.288-1.029 2.584-3 2.915z"/>
    </symbol>
    <symbol id="atm-icon" viewBox="0 0 486.2 486.2" width="30" height="30" fill="#FFC107">
      <path d="M486.2 41.2v128.1c0 44.4-36 80.3-80.3 80.3V120.8H80.3v128.8C36 249.6 0 213.6 0 169.3V41.2h486.2zM220.9 349.3c0 12.4 10.1 22.5 22.5 22.5s22.5-10.1 22.5-22.5-10.1-22.5-22.5-22.5-22.5 10.1-22.5 22.5zM343.8 370c-2.2-.4-4.5-.6-6.9-.6-20.7 0-37.5 16.8-37.5 37.5 0 2.2.2 4.4.6 6.6H186.2c.4-2.1.6-4.3.6-6.6 0-20.7-16.8-37.5-37.5-37.5-2.4 0-4.7.2-6.9.6V150.3h-31.6V408c0 20.4 16.6 37 37 37h190.5c20.4 0 37-16.6 37-37V150.3h-31.6V370h.1zm-100.4-57.6c-44.8 0-81-36.3-81-81s36.3-81 81-81 81 36.3 81 81-36.2 81-81 81zm55.5-76.6v-7.7c-.1-2.1-1.2-3.2-3.3-3.2-2.4 0-4.8-.1-7.2 0-2.4.1-3.7-.9-4.3-3.3-1.5-5.4-4.4-10-8.7-13.5-11.9-9.8-29.3-6-37 7.9-2.4 4.4-4.2 9-6.1 13.6-1.1 2.7-2.4 5.2-4.2 7.4-3.5 4.4-9.3 3.6-11.5-1.6-.6-1.5-.8-3-.9-4.6-.3-6 .8-11.7 3.4-17.1 1.3-2.7.9-3.6-1.9-4.5-3-1-6-1.8-9-2.7-2-.6-3.4.1-4.2 2.1-1.5 3.5-2.6 7.1-3.2 10.8-.8 4.9-.8 4.9-5.7 4.9-7 0-7 0-7 7v3c.1 3.3.7 3.8 3.9 3.9h4.4c4.4 0 4.3 0 5.8 4.2 3.7 10.1 10.5 16.3 21.6 17 9.7.6 16.3-4.5 21.1-12.5 3-4.9 4.7-10.4 7-15.6.9-2 1.9-4 3.3-5.7 4.1-5 11.1-4.1 13.7 1.9 1.4 3.2 1.7 6.6 1.3 10-.7 5.3-2.1 10.5-4.6 15.3-1.5 2.8-1.1 3.6 2 4.6 2.6.8 5.3 1.6 8 2.3 3.6 1 4.4.6 6.1-2.8 2.1-4.3 3.2-9 3.9-13.8.6-3.7.8-3.8 4.6-3.9h5.2c2.1-.1 3.4-1.1 3.5-3.4z"/>
    </symbol>
    <symbol id="offer-icon" viewBox="0 0 24 24" width="30" height="30" fill="#FFC107">
      <path d="m20.749 12 1.104-1.908a1 1 0 0 0-.365-1.366l-1.91-1.104v-2.2a1 1 0 0 0-1-1h-2.199l-1.103-1.909a1.008 1.008 0 0 0-.607-.466.993.993 0 0 0-.759.1L12 3.251l-1.91-1.105a1 1 0 0 0-1.366.366L7.62 4.422H5.421a1 1 0 0 0-1 1v2.199l-1.91 1.104a.998.998 0 0 0-.365 1.367L3.25 12l-1.104 1.908a1.004 1.004 0 0 0 .364 1.367l1.91 1.104v2.199a1 1 0 0 0 1 1h2.2l1.104 1.91a1.01 1.01 0 0 0 .866.5c.174 0 .347-.046.501-.135l1.908-1.104 1.91 1.104a1.001 1.001 0 0 0 1.366-.365l1.103-1.91h2.199a1 1 0 0 0 1-1v-2.199l1.91-1.104a1 1 0 0 0 .365-1.367L20.749 12zM9.499 6.99a1.5 1.5 0 1 1-.001 3.001 1.5 1.5 0 0 1 .001-3.001zm.3 9.6-1.6-1.199 6-8 1.6 1.199-6 8zm4.7.4a1.5 1.5 0 1 1 .001-3.001 1.5 1.5 0 0 1-.001 3.001z"/>
    </symbol>
    <symbol id="support-icon" viewBox="0 0 24 24" width="30" height="30" fill="#FFC107">
      <path d="M12 2C6.486 2 2 6.486 2 12v4.143C2 17.167 2.897 18 4 18h1a1 1 0 0 0 1-1v-5.143a1 1 0 0 0-1-1h-.908C4.648 6.987 7.978 4 12 4s7.352 2.987 7.908 6.857H19a1 1 0 0 0-1 1V18c0 1.103-.897 2-2 2h-2v-1h-4v3h6c2.206 0 4-1.794 4-4 1.103 0 2-.833 2-1.857V12c0-5.514-4.486-10-10-10z"/>
    </symbol>
    <symbol id="rules-icon" viewBox="0 0 32 32">
      <path d="M10 16h12v2H10zM10 10h12v2H10z"/>
      <path d="m16 30-6.176-3.293A10.982 10.982 0 0 1 4 17V4a2.002 2.002 0 0 1 2-2h20a2.002 2.002 0 0 1 2 2v13a10.982 10.982 0 0 1-5.824 9.707ZM6 4v13a8.985 8.985 0 0 0 4.766 7.942L16 27.733l5.234-2.79A8.985 8.985 0 0 0 26 17V4Z"/>
    </symbol>

    <!-- Brands Icons -->
    <symbol id="google-icon" viewBox="0 0 24 24">
      <path d="M11.99 13.9v-3.72h9.36c.14.63.25 1.22.25 2.05 0 5.71-3.83 9.77-9.6 9.77-5.52 0-10-4.48-10-10S6.48 2 12 2c2.7 0 4.96.99 6.69 2.61l-2.84 2.76c-.72-.68-1.98-1.48-3.85-1.48-3.31 0-6.01 2.75-6.01 6.12s2.7 6.12 6.01 6.12c3.83 0 5.24-2.65 5.5-4.22h-5.51v-.01Z"/>
    </symbol>
    <symbol id="facebook-circle-icon" viewBox="0 0 24 24">
      <path d="M22 12c0-5.523-4.477-10-10-10S2 6.477 2 12c0 4.991 3.657 9.128 8.438 9.878v-6.987h-2.54V12h2.54V9.797c0-2.506 1.492-3.89 3.777-3.89 1.094 0 2.238.195 2.238.195v2.46h-1.26c-1.243 0-1.63.771-1.63 1.562V12h2.773l-.443 2.89h-2.33v6.988C18.343 21.128 22 16.991 22 12z" />
    </symbol>
    <symbol id="instagram-icon" viewBox="0 0 24 24">
      <path d="M12.315 2c2.43 0 2.784.013 3.808.06 1.064.049 1.791.218 2.427.465a4.902 4.902 0 011.772 1.153 4.902 4.902 0 011.153 1.772c.247.636.416 1.363.465 2.427.048 1.067.06 1.407.06 4.123v.08c0 2.643-.012 2.987-.06 4.043-.049 1.064-.218 1.791-.465 2.427a4.902 4.902 0 01-1.153 1.772 4.902 4.902 0 01-1.772 1.153c-.636.247-1.363.416-2.427.465-1.067.048-1.407.06-4.123.06h-.08c-2.643 0-2.987-.012-4.043-.06-1.064-.049-1.791-.218-2.427-.465a4.902 4.902 0 01-1.772-1.153 4.902 4.902 0 01-1.153-1.772c-.247-.636-.416-1.363-.465-2.427-.047-1.024-.06-1.379-.06-3.808v-.63c0-2.43.013-2.784.06-3.808.049-1.064.218-1.791.465-2.427a4.902 4.902 0 011.153-1.772A4.902 4.902 0 015.45 2.525c.636-.247 1.363-.416 2.427-.465C8.901 2.013 9.256 2 11.685 2h.63zm-.081 1.802h-.468c-2.456 0-2.784.011-3.807.058-.975.045-1.504.207-1.857.344-.467.182-.8.398-1.15.748-.35.35-.566.683-.748 1.15-.137.353-.3.882-.344 1.857-.047 1.023-.058 1.351-.058 3.807v.468c0 2.456.011 2.784.058 3.807.045.975.207 1.504.344 1.857.182.466.399.8.748 1.15.35.35.683.566 1.15.748.353.137.882.3 1.857.344 1.054.048 1.37.058 4.041.058h.08c2.597 0 2.917-.01 3.96-.058.976-.045 1.505-.207 1.858-.344.466-.182.8-.398 1.15-.748.35-.35.566-.683.748-1.15.137-.353.3-.882.344-1.857.048-1.055.058-1.37.058-4.041v-.08c0-2.597-.01-2.917-.058-3.96-.045-.976-.207-1.505-.344-1.858a3.097 3.097 0 00-.748-1.15 3.098 3.098 0 00-1.15-.748c-.353-.137-.882-.3-1.857-.344-1.023-.047-1.351-.058-3.807-.058zM12 6.865a5.135 5.135 0 110 10.27 5.135 5.135 0 010-10.27zm0 1.802a3.333 3.333 0 100 6.666 3.333 3.333 0 000-6.666zm5.338-3.205a1.2 1.2 0 110 2.4 1.2 1.2 0 010-2.4z" />
    </symbol>
    <symbol id="twitter-icon" viewBox="0 0 24 24">
      <path d="M8.29 20.251c7.547 0 11.675-6.253 11.675-11.675 0-.178 0-.355-.012-.53A8.348 8.348 0 0022 5.92a8.19 8.19 0 01-2.357.646 4.118 4.118 0 001.804-2.27 8.224 8.224 0 01-2.605.996 4.107 4.107 0 00-6.993 3.743 11.65 11.65 0 01-8.457-4.287 4.106 4.106 0 001.27 5.477A4.072 4.072 0 012.8 9.713v.052a4.105 4.105 0 003.292 4.022 4.095 4.095 0 01-1.853.07 4.108 4.108 0 003.834 2.85A8.233 8.233 0 012 18.407a11.616 11.616 0 006.29 1.84"></path>
    </symbol>
    <symbol id="reddit-icon" viewBox="0 0 24 24">
      <path d="M24 11.779c0-1.459-1.192-2.645-2.657-2.645-.715 0-1.363.286-1.84.746-1.81-1.191-4.259-1.949-6.971-2.046l1.483-4.669 4.016.941-.006.058c0 1.193.975 2.163 2.174 2.163 1.198 0 2.172-.97 2.172-2.163s-.975-2.164-2.172-2.164c-.92 0-1.704.574-2.021 1.379l-4.329-1.015c-.189-.046-.381.063-.44.249l-1.654 5.207c-2.838.034-5.409.798-7.3 2.025-.474-.438-1.103-.712-1.799-.712-1.465 0-2.656 1.187-2.656 2.646 0 .97.533 1.811 1.317 2.271-.052.282-.086.567-.086.857 0 3.911 4.808 7.093 10.719 7.093s10.72-3.182 10.72-7.093c0-.274-.029-.544-.075-.81.832-.447 1.405-1.312 1.405-2.318zm-17.224 1.816c0-.868.71-1.575 1.582-1.575.872 0 1.581.707 1.581 1.575s-.709 1.574-1.581 1.574-1.582-.706-1.582-1.574zm9.061 4.669c-.797.793-2.048 1.179-3.824 1.179l-.013-.003-.013.003c-1.777 0-3.028-.386-3.824-1.179-.145-.144-.145-.379 0-.523.145-.145.381-.145.526 0 .65.647 1.729.961 3.298.961l.013.003.013-.003c1.569 0 2.648-.315 3.298-.962.145-.145.381-.144.526 0 .145.145.145.379 0 .524zm-.189-3.095c-.872 0-1.581-.706-1.581-1.574 0-.868.709-1.575 1.581-1.575s1.581.707 1.581 1.575-.709 1.574-1.581 1.574z" />
    </symbol>
    <symbol id="discord-icon" viewBox="0 0 24 24">
      <path d="M18.942 5.556a16.299 16.299 0 0 0-4.126-1.297c-.178.321-.385.754-.529 1.097a15.175 15.175 0 0 0-4.573 0 11.583 11.583 0 0 0-.535-1.097 16.274 16.274 0 0 0-4.129 1.3c-2.611 3.946-3.319 7.794-2.965 11.587a16.494 16.494 0 0 0 5.061 2.593 12.65 12.65 0 0 0 1.084-1.785 10.689 10.689 0 0 1-1.707-.831c.143-.106.283-.217.418-.331 3.291 1.539 6.866 1.539 10.118 0 .137.114.277.225.418.331-.541.326-1.114.606-1.71.832a12.52 12.52 0 0 0 1.084 1.785 16.46 16.46 0 0 0 5.064-2.595c.415-4.396-.709-8.209-2.973-11.589zM8.678 14.813c-.988 0-1.798-.922-1.798-2.045s.793-2.047 1.798-2.047 1.815.922 1.798 2.047c.001 1.123-.793 2.045-1.798 2.045zm6.644 0c-.988 0-1.798-.922-1.798-2.045s.793-2.047 1.798-2.047 1.815.922 1.798 2.047c0 1.123-.793 2.045-1.798 2.045z"/>
    </symbol>
    <symbol id="apple-icon" viewBox="0 0 305 305">
      <path d="M40.738 112.119c-25.785 44.745-9.393 112.648 19.121 153.82C74.092 286.523 88.502 305 108.239 305c.372 0 .745-.007 1.127-.022 9.273-.37 15.974-3.225 22.453-5.984 7.274-3.1 14.797-6.305 26.597-6.305 11.226 0 18.39 3.101 25.318 6.099 6.828 2.954 13.861 6.01 24.253 5.815 22.232-.414 35.882-20.352 47.925-37.941 12.567-18.365 18.871-36.196 20.998-43.01l.086-.271a2.5 2.5 0 0 0-1.328-3.066c-.032-.015-.15-.064-.183-.078-3.915-1.601-38.257-16.836-38.618-58.36-.335-33.736 25.763-51.601 30.997-54.839l.244-.152a2.498 2.498 0 0 0 .71-3.511c-18.014-26.362-45.624-30.335-56.74-30.813a50.043 50.043 0 0 0-4.95-.242c-13.056 0-25.563 4.931-35.611 8.893-6.936 2.735-12.927 5.097-17.059 5.097-4.643 0-10.668-2.391-17.645-5.159-9.33-3.703-19.905-7.899-31.1-7.899-.267 0-.53.003-.789.008-26.03.383-50.626 15.275-64.186 38.859z"/>
      <path d="M212.101.002c-15.763.642-34.672 10.345-45.974 23.583-9.605 11.127-18.988 29.679-16.516 48.379a2.499 2.499 0 0 0 2.284 2.164c1.064.083 2.15.125 3.232.126 15.413 0 32.04-8.527 43.395-22.257 11.951-14.498 17.994-33.104 16.166-49.77a2.515 2.515 0 0 0-2.587-2.225z"/>
    </symbol>
    <symbol id="android-icon" viewBox="0 0 24 24">
      <path fill-rule="evenodd" d="M5.685 7.914h12.718v10.364c0 .615-.499 1.115-1.114 1.115h-1.274v3.156A1.44 1.44 0 0 1 14.587 24a1.44 1.44 0 0 1-1.43-1.451v-3.156h-2.225v3.156A1.44 1.44 0 0 1 9.502 24a1.44 1.44 0 0 1-1.429-1.451v-3.156H6.8c-.615 0-1.115-.5-1.115-1.115V7.914Zm-2.492-.085c-.797 0-1.443.656-1.443 1.466v5.727c0 .808.646 1.465 1.443 1.465s1.443-.657 1.443-1.465V9.295c0-.81-.646-1.466-1.443-1.466Zm15.21-.96H5.685C5.842 5.059 7.018 3.5 8.71 2.597L7.5.82a.525.525 0 1 1 .868-.59l1.318 1.936a7.204 7.204 0 0 1 4.717 0L15.721.23a.524.524 0 1 1 .867.59L15.38 2.596c1.692.902 2.866 2.461 3.023 4.274Zm-8.338-2.461a.703.703 0 1 0-1.406-.001.703.703 0 0 0 1.406 0Zm5.454 0a.704.704 0 1 0-1.408 0 .704.704 0 0 0 1.408 0Zm5.378 3.42c-.797 0-1.444.656-1.444 1.466v5.729c0 .81.647 1.466 1.444 1.466.797 0 1.441-.657 1.441-1.466v-5.73c0-.809-.644-1.466-1.441-1.466Z"/>
    </symbol>
    <symbol id="monitor-icon" viewBox="0 0 71.577 71.577">
      <path d="m25.052 57.523-7.158 7.158h35.789l-7.158-7.158zM0 6.896v46.525h71.577V6.896H0zm35.316 13.503c.036-.276.093-.555.179-.82a7.44 7.44 0 0 1 .691-1.578c.626-1.081 1.46-1.954 2.537-2.591.465-.276.963-.523 1.467-.719.44-.161.909-.24 1.364-.336.218-.047.251 0 .258.222.007.19 0 .379 0 .519.043.691-.075 1.303-.258 1.904a7.865 7.865 0 0 1-1.152 2.265 6.743 6.743 0 0 1-1.779 1.689 6.37 6.37 0 0 1-1.564.752 5.683 5.683 0 0 1-1.568.272c-.136.004-.175-.057-.19-.19a6.086 6.086 0 0 1 .015-1.389zm12.769 19.834c-.379.673-.82 1.313-1.267 1.943-.444.626-.92 1.231-1.417 1.814a6.64 6.64 0 0 1-1.782 1.46c-.762.415-1.557.619-2.444.48-.648-.104-1.224-.376-1.818-.623a11.737 11.737 0 0 0-1.274-.462c-.78-.225-1.571-.243-2.384-.175a6.31 6.31 0 0 0-1.936.49c-.369.154-.727.319-1.099.462-.737.283-1.489.447-2.301.308-.938-.161-1.711-.623-2.412-1.228-.608-.523-1.117-1.124-1.593-1.75a21.007 21.007 0 0 1-1.904-2.967 24.725 24.725 0 0 1-.855-1.84 17.538 17.538 0 0 1-.537-1.432c-.14-.419-.24-.852-.358-1.281-.075-.297-.157-.594-.215-.895a21.231 21.231 0 0 1-.186-1.256 16.668 16.668 0 0 1-.107-1.335c-.014-.472-.007-.948.014-1.417.018-.394.047-.787.1-1.174.054-.351.132-.698.222-1.038.118-.429.254-.859.404-1.278.197-.558.49-1.066.83-1.55a9.072 9.072 0 0 1 1.811-1.961c.523-.426 1.088-.809 1.714-1.077.39-.168.791-.351 1.202-.462.798-.211 1.6-.344 2.426-.208.383.064.769.107 1.142.193.319.072.626.186.934.29.358.115.701.236 1.056.354.301.097.594.215.902.286.662.161 1.328.286 2.011.14.379-.082.762-.168 1.134-.276.243-.075.487-.179.727-.265.272-.1.548-.208.83-.297.34-.111.676-.229 1.031-.293.727-.136 1.464-.243 2.215-.15.283.036.583.064.862.129.301.068.608.14.895.261.49.208.97.429 1.432.698a8.057 8.057 0 0 1 2.212 1.893c.054.061.1.122.175.197-.1.064-.19.122-.268.175a6.622 6.622 0 0 0-2.623 2.809 7.535 7.535 0 0 0-.54 1.553c-.157.659-.168 1.324-.143 1.997.014.304.075.608.143.909.097.408.197.823.351 1.213.154.394.361.78.58 1.142.308.508.68.973 1.12 1.378a7.424 7.424 0 0 0 2.058 1.331c.039.018.079.018.118.032.089.043.132.107.079.208-.408.856-.816 1.719-1.267 2.545z"/>
    </symbol>
    <symbol id="paypal-icon" viewBox="0 0 24 24">
      <path d="M20.437 7.104a3.823 3.823 0 0 0-.573-.523 4.725 4.725 0 0 0-1.157-3.74C17.623 1.619 15.775 1 13.214 1H7.001a1.892 1.892 0 0 0-1.864 1.592l-2.59 16.406a1.533 1.533 0 0 0 1.516 1.785h2.664l-.082.52A1.467 1.467 0 0 0 8.093 23h3.235a1.761 1.761 0 0 0 1.75-1.47l.641-4.031.011-.055h.299c4.032 0 6.55-1.993 7.285-5.762a5.149 5.149 0 0 0-.877-4.578Zm-12.595 6.6-.714 4.535-.086.544H4.606L7.097 3h6.117c1.936 0 3.318.404 3.993 1.164a2.967 2.967 0 0 1 .607 2.733l-.018.113c-.012.076-.023.15-.044.246a5.846 5.846 0 0 1-2.005 3.67 6.677 6.677 0 0 1-4.217 1.183H9.707a1.88 1.88 0 0 0-1.865 1.595Zm11.51-2.405c-.552 2.828-2.243 4.145-5.323 4.145h-.484a1.761 1.761 0 0 0-1.75 1.473l-.65 4.074L8.717 21l.478-3.034.612-3.853h1.719c.157 0 .295-.023.448-.029.359-.012.717-.026 1.053-.068.205-.025.393-.072.59-.108.273-.05.545-.1.801-.171.19-.053.368-.122.55-.186.238-.085.474-.174.697-.279.168-.079.328-.167.486-.257a6.771 6.771 0 0 0 .613-.392c.142-.102.282-.208.415-.32a6.564 6.564 0 0 0 .537-.52c.113-.12.228-.237.333-.367a7.09 7.09 0 0 0 .48-.693c.076-.122.161-.235.232-.363a8.332 8.332 0 0 0 .52-1.154c.009-.024.021-.044.03-.068.004-.01.01-.02.014-.032a4.299 4.299 0 0 1 .026 2.193Z"/>
    </symbol>
    <symbol id="windows-icon" viewBox="0 0 305 305">
      <path d="M139.999 25.775v116.724a2.5 2.5 0 0 0 2.5 2.5H302.46a2.5 2.5 0 0 0 2.5-2.5V2.5A2.5 2.5 0 0 0 302.1.026L142.139 23.301a2.5 2.5 0 0 0-2.14 2.474zM122.501 279.948a2.498 2.498 0 0 0 2.5-2.5V162.5a2.5 2.5 0 0 0-2.5-2.5H2.592a2.5 2.5 0 0 0-2.5 2.5l.006 98.515a2.5 2.5 0 0 0 2.16 2.477l119.903 16.434c.113.014.227.022.34.022zM2.609 144.999h119.892a2.5 2.5 0 0 0 2.5-2.5V28.681a2.502 2.502 0 0 0-2.836-2.477L2.164 42.5A2.5 2.5 0 0 0 0 44.98l.109 97.521a2.501 2.501 0 0 0 2.5 2.498zM302.46 305a2.5 2.5 0 0 0 2.5-2.5l.04-140a2.5 2.5 0 0 0-2.5-2.5H142.499a2.5 2.5 0 0 0-2.5 2.5v117.496c0 1.246.918 2.302 2.151 2.476l159.961 22.504c.117.016.233.024.349.024z"/>
    </symbol>

    <!-- Play Icon -->
    <symbol id="play-icon" viewBox="0 0 58.752 58.752">
      <path d="M52.524 23.925 12.507.824c-1.907-1.1-4.376-1.097-6.276 0a6.294 6.294 0 0 0-3.143 5.44v46.205a6.29 6.29 0 0 0 3.131 5.435 6.263 6.263 0 0 0 6.29.005l40.017-23.103a6.3 6.3 0 0 0 3.138-5.439 6.315 6.315 0 0 0-3.14-5.442zm-3 5.687L9.504 52.716a.27.27 0 0 1-.279-.005.28.28 0 0 1-.137-.242V6.263a.28.28 0 0 1 .421-.243l40.01 23.098a.29.29 0 0 1 .145.249.283.283 0 0 1-.14.245z"/>
    </symbol>

    <!-- Arrow Icons -->
    <symbol id="left-arrow-icon" viewBox="0 0 25.451 25.451">
      <path d="M20.982.521v2.006L8.57 12.315c-.121.101-.195.251-.195.41s.074.311.195.41l12.412 9.79v2.005a.52.52 0 0 1-.297.469.519.519 0 0 1-.549-.061L4.664 13.136a.531.531 0 0 1 0-.82L20.136.113a.523.523 0 0 1 .846.408z"/>
    </symbol>
    <symbol id="down-arrow-icon" viewBox="0 0 55.751 55.751">
      <path d="M31.836 43.006c.282-.281.518-.59.725-.912L54.17 20.485a5.403 5.403 0 0 0 0-7.638 5.403 5.403 0 0 0-7.638 0l-18.608 18.61L9.217 12.753A5.4 5.4 0 0 0 0 16.571a5.363 5.363 0 0 0 1.582 3.816l21.703 21.706c.207.323.445.631.729.913a5.367 5.367 0 0 0 3.91 1.572 5.37 5.37 0 0 0 3.912-1.572z"/>
    </symbol>

    <!-- Checkbox Icon -->
    <symbol id="checkbox-icon" viewBox="0 0 512 512">
      <ellipse cx="256" cy="256" rx="256" ry="255.832"/>
      <path fill="#ffffff" d="m235.472 392.08-121.04-94.288 34.424-44.176 74.32 57.904 122.68-177.024 46.032 31.904z"/>
    </symbol>

    <!-- Exchange Icon -->
    <symbol id="exchange-icon" viewBox="0 0 330.002 330.002">
      <path d="M79.395 175.607a14.997 14.997 0 0 0 25.606-10.606v-60h210c8.284 0 15-6.716 15-15s-6.716-15-15-15h-210v-60A15 15 0 0 0 79.395 4.394l-75 75c-5.858 5.858-5.858 15.355 0 21.213l75 75zM250.607 154.394A14.998 14.998 0 0 0 225 165v60H15c-8.284 0-15 6.716-15 15 0 8.284 6.716 15 15 15h210v60a14.998 14.998 0 0 0 14.996 15.001c3.904 0 7.741-1.524 10.61-4.395l75-75c5.858-5.857 5.858-15.354 0-21.213l-74.999-74.999z"/>
    </symbol>

    <!-- Category Icon -->
    <symbol id="category-icon" viewBox="0 0 24 24">
      <path d="M10 3H4a1 1 0 0 0-1 1v6a1 1 0 0 0 1 1h6a1 1 0 0 0 1-1V4a1 1 0 0 0-1-1zM9 9H5V5h4v4zm11-6h-6a1 1 0 0 0-1 1v6a1 1 0 0 0 1 1h6a1 1 0 0 0 1-1V4a1 1 0 0 0-1-1zm-1 6h-4V5h4v4zm-9 4H4a1 1 0 0 0-1 1v6a1 1 0 0 0 1 1h6a1 1 0 0 0 1-1v-6a1 1 0 0 0-1-1zm-1 6H5v-4h4v4zm8-6c-2.206 0-4 1.794-4 4s1.794 4 4 4 4-1.794 4-4-1.794-4-4-4zm0 6c-1.103 0-2-.897-2-2s.897-2 2-2 2 .897 2 2-.897 2-2 2z"/>
    </symbol>

    <symbol id="kyc-icon" viewBox="0 0 60 60">
      <path d="m52.179 40.5-5.596 8.04-3.949-3.241a1 1 0 1 0-1.268 1.545l4.786 3.929a.995.995 0 0 0 .771.217c.276-.038.524-.19.684-.419l6.214-8.929a1 1 0 1 0-1.642-1.142z"/>
      <path d="M54.164 35.163A27.54 27.54 0 0 0 55 28.5C55 13.337 42.664 1 27.5 1S0 13.337 0 28.5c0 8.01 3.444 15.229 8.927 20.259l-.026.023.891.751c.056.047.117.086.173.133.477.396.972.772 1.476 1.136.159.115.318.23.479.341.535.369 1.085.719 1.646 1.051l.366.211a27.69 27.69 0 0 0 1.881.981l.141.064a27.259 27.259 0 0 0 6.65 2.105l.185.033c.723.125 1.455.225 2.197.292.09.008.181.013.271.021.741.06 1.487.099 2.243.099a27.35 27.35 0 0 0 9.503-1.702C39.389 57.168 42.984 59 47 59c7.168 0 13-5.832 13-13 0-4.522-2.323-8.508-5.836-10.837zM2 28.5C2 14.439 13.439 3 27.5 3S53 14.439 53 28.5c0 1.903-.214 3.804-.639 5.666-.017-.008-.036-.013-.053-.021-.376-.169-.762-.32-1.156-.453-.034-.011-.067-.026-.101-.037-.411-.135-.83-.251-1.258-.345l-.06-.016c-.417-.09-.841-.158-1.271-.207l-.09-.014A13.504 13.504 0 0 0 47 33c-5.923 0-10.923 3.986-12.485 9.413a2.208 2.208 0 0 1-.697-1.613v-2.957c.198-.243.405-.518.617-.817a20.344 20.344 0 0 0 2.616-5.123 3.63 3.63 0 0 0 2.085-3.289v-3.545c0-.866-.318-1.708-.886-2.369v-4.667c.052-.52.236-3.448-1.883-5.864C34.524 10.065 31.541 9 27.5 9s-7.024 1.065-8.867 3.168c-2.119 2.416-1.935 5.346-1.883 5.864v4.667a3.645 3.645 0 0 0-.886 2.369v3.545a3.64 3.64 0 0 0 1.339 2.821c.81 3.173 2.476 5.575 3.092 6.389v2.894a2.23 2.23 0 0 1-1.162 1.958l-7.907 4.313a7.301 7.301 0 0 0-.752.477C5.276 42.792 2 36.022 2 28.5zm23.605 25.422c-.109-.008-.218-.015-.326-.025a25.538 25.538 0 0 1-1.893-.234l-.077-.014a25.545 25.545 0 0 1-4.005-1.009 25.625 25.625 0 0 1-3.601-1.544c-.067-.035-.135-.068-.201-.103a25.756 25.756 0 0 1-1.94-1.156 25.598 25.598 0 0 1-1.343-.936l-.133-.104.097-.054 7.907-4.313a4.23 4.23 0 0 0 2.204-3.714v-3.603l-.233-.278c-.021-.025-2.176-2.634-2.999-6.215l-.091-.396-.341-.221a1.657 1.657 0 0 1-.769-1.392v-3.545c0-.465.198-.898.557-1.223l.33-.298v-5.57l-.009-.131c-.003-.024-.298-2.429 1.396-4.36C21.583 11.837 24.06 11 27.5 11c3.425 0 5.897.83 7.346 2.466 1.692 1.911 1.415 4.361 1.413 4.381l-.009 5.701.33.298c.359.324.557.758.557 1.223v3.545a1.65 1.65 0 0 1-1.181 1.574l-.498.154-.16.496a18.457 18.457 0 0 1-2.496 5.032 11.75 11.75 0 0 1-.736.948l-.248.283V40.8c0 1.587.868 3.015 2.268 3.746A13.17 13.17 0 0 0 34 46c0 .292.01.583.029.873.007.103.021.205.031.307.009.096.018.191.029.287.01.09.015.181.027.27.023.17.056.338.086.507.02.115.035.231.058.345l.003.012c.006.03.015.058.021.088.031.146.068.291.104.436.025.101.045.202.072.302.024.088.055.173.081.26.034.116.07.231.108.345.024.072.042.145.067.216.07.201.15.399.23.596l.003.008a13.477 13.477 0 0 0 .343.77c.034.071.064.143.099.213.023.046.05.09.074.136.084.163.173.322.264.48.027.047.051.096.078.143A25.252 25.252 0 0 1 27.5 54a25.43 25.43 0 0 1-1.895-.078zM47 57c-3.661 0-6.901-1.805-8.902-4.564-.083-.114-.158-.231-.236-.347-.054-.08-.111-.158-.162-.239a14.403 14.403 0 0 1-.127-.208c-.045-.074-.085-.15-.128-.225-.069-.122-.143-.241-.207-.365-.047-.091-.089-.185-.134-.278l-.035-.076c-.075-.157-.153-.312-.221-.472-.036-.085-.063-.173-.097-.258-.077-.199-.155-.398-.221-.602-.031-.095-.055-.193-.083-.289a10.862 10.862 0 0 1-.18-.691c-.014-.063-.025-.127-.038-.191l-.036-.181a11.452 11.452 0 0 1-.103-.672l-.009-.079c-.009-.082-.022-.164-.029-.246A11.043 11.043 0 0 1 36 46a11.081 11.081 0 0 1 .169-1.853l.074-.433C37.298 38.742 41.719 35 47 35c.446 0 .89.034 1.332.089.101.012.199.031.299.046.365.055.728.127 1.086.219.075.019.15.037.225.058.882.247 1.735.601 2.537 1.063C55.773 38.377 58 41.93 58 46c0 6.065-4.935 11-11 11z"/>
    </symbol>

    <!-- Verify Icon -->
    <symbol id="verify-icon" viewBox="0 0 24 24">
      <path d="M10.79 15.17a.75.75 0 0 1-.53-.22l-2.42-2.42a.754.754 0 0 1 0-1.06c.29-.29.77-.29 1.06 0l1.89 1.89 4.3-4.3c.29-.29.77-.29 1.06 0 .29.29.29.77 0 1.06l-4.83 4.83a.75.75 0 0 1-.53.22Z" />
      <path d="M12 22.75c-.63 0-1.26-.21-1.75-.63l-1.58-1.36c-.16-.14-.56-.28-.77-.28H6.18A2.68 2.68 0 0 1 3.5 17.8v-1.71c0-.21-.14-.6-.28-.76l-1.35-1.59c-.82-.97-.82-2.5 0-3.47l1.35-1.59c.14-.16.28-.55.28-.76V6.2c0-1.48 1.2-2.68 2.68-2.68h1.73c.21 0 .61-.15.77-.28l1.58-1.36c.98-.84 2.51-.84 3.49 0l1.58 1.36c.16.14.56.28.77.28h1.7c1.48 0 2.68 1.2 2.68 2.68v1.7c0 .21.15.61.29.77l1.36 1.58c.84.98.84 2.51 0 3.49l-1.36 1.58c-.14.16-.29.56-.29.77v1.7c0 1.48-1.2 2.68-2.68 2.68h-1.7c-.21 0-.61.15-.77.28l-1.58 1.36c-.49.43-1.12.64-1.75.64ZM6.18 5.02C5.53 5.02 5 5.55 5 6.2v1.71c0 .57-.27 1.3-.64 1.73l-1.35 1.59c-.35.41-.35 1.12 0 1.53l1.35 1.59c.37.44.64 1.16.64 1.73v1.71c0 .65.53 1.18 1.18 1.18h1.73c.58 0 1.31.27 1.75.65l1.58 1.36c.41.35 1.13.35 1.54 0l1.58-1.36c.44-.37 1.17-.65 1.75-.65h1.7c.65 0 1.18-.53 1.18-1.18v-1.7c0-.58.27-1.31.65-1.75L21 12.76c.35-.41.35-1.13 0-1.54l-1.36-1.58c-.38-.44-.65-1.17-.65-1.75V6.2c0-.65-.53-1.18-1.18-1.18h-1.7c-.58 0-1.31-.27-1.75-.65l-1.58-1.36c-.41-.35-1.13-.35-1.54 0L9.66 4.38c-.44.37-1.18.64-1.75.64H6.18Z" />
    </symbol>
  </defs>
</svg>
